<svg width="400" height="400" viewBox="0 0 400 400" fill="none" xmlns="http://www.w3.org/2000/svg">
<path fill-rule="evenodd" clip-rule="evenodd" d="M167.496 153.011C148.265 158.734 147.613 158.904 144.794 158.904C143.371 158.904 140.815 158.398 139.112 157.781C134.874 156.243 123.918 155.439 116.087 156.09C107.904 156.769 104.532 158.274 92.6909 166.524C76.5295 177.783 66.4257 184.356 58.3522 188.863C47.4181 194.968 47.2637 198.131 57.6315 203.61C60.6646 205.214 60.7027 205.279 60.2709 208.181C59.7391 211.751 60.9811 212.709 66.1655 212.73C70.9229 212.749 73.4136 213.333 73.4136 214.431C73.4136 216.65 81.3851 231.122 84.2037 234.02C89.0116 238.964 96.5952 244.352 103.761 247.912L110.412 251.217L121.903 251.453C150.192 252.035 172.426 235.449 173.832 212.712C174.737 198.091 184.962 191.481 207.108 191.201C222.307 191.009 229.874 197.53 234.894 215.15C237.878 225.623 247.988 238.837 258.039 245.401C282.688 261.5 322.694 245.262 328.056 216.983C329.404 209.875 330.089 209.228 337.522 208.051C341.332 207.448 343.632 204.965 343.632 201.455C343.632 199.15 344.181 198.059 346.816 195.13C352.161 189.185 352.706 189.851 332.958 178.186C325.725 173.914 317.328 168.447 314.297 166.039C303.475 157.44 297.457 155.428 280.842 154.856C271.147 154.523 269.142 154.631 268.109 155.539C261.828 161.058 251.461 160.697 239.418 154.538C237.794 153.708 233.32 152.123 229.477 151.014L222.488 149L201.535 149.058L180.582 149.116L167.496 153.011ZM217.719 155.756C229.796 158.249 241.77 162.804 241.77 164.905C241.77 165.531 242.726 166.585 243.894 167.248C247.274 169.166 247.219 170.522 243.595 174.553C241.817 176.53 238.908 181.054 237.129 184.606C235.352 188.158 233.762 191.199 233.597 191.364C233.432 191.529 231.578 190.037 229.476 188.049C227.374 186.061 224.904 184.276 223.986 184.081C214.197 182.005 207.656 181.745 195.79 182.959C183.301 184.238 179.566 185.556 175.277 190.201L172.622 193.077L169.019 186.063C167.037 182.204 163.66 176.983 161.513 174.458C156.95 169.09 156.864 168.64 159.86 165.842C164.765 161.259 174.11 157.414 183.002 156.318C187.47 155.767 191.273 155.168 191.454 154.988C192.301 154.142 212.802 154.741 217.719 155.756ZM286.779 162.918C288.286 163.57 291.538 164.327 294.006 164.602C302.177 165.511 301.978 168.946 293.234 177.945C288.101 183.226 280.748 191.408 275.548 197.623C272.676 201.055 271.884 205.247 273.956 206.042C275.686 206.706 275.278 207.475 269.535 214.373C266.52 217.995 262.209 223.245 259.954 226.041C257.7 228.837 255.373 231.31 254.783 231.536C252.776 232.306 246.955 225.269 244.254 218.807L243.134 216.126L247.255 216.592C252.841 217.224 253.438 216.47 252.851 209.528C252.608 206.656 252.117 203.561 251.759 202.65C251.401 201.738 250.768 199.718 250.354 198.162C249.939 196.604 248.315 193.912 246.746 192.177C243.381 188.459 243.352 188.218 245.705 183.574C250.567 173.979 263.967 164.923 276.431 162.806C283.669 161.577 283.681 161.577 286.779 162.918ZM130.882 166.064C137.02 167.994 139.2 169.008 139.2 169.935C139.2 170.492 130.287 179.776 119.392 190.568C97.7981 211.956 97.8696 211.854 102.129 215.364C105.077 217.794 105.018 218.044 99.9018 224.722C94.3638 231.954 93.8529 231.801 87.5208 221.045C71.5463 193.911 100.933 156.647 130.882 166.064ZM331.603 186.315C334.778 188.063 336.578 190.245 335.628 191.195C334.733 192.09 326.656 186.78 326.656 185.298C326.656 183.936 327.659 184.143 331.603 186.315ZM320.25 189.852C328.231 218.644 310.216 243.789 281.609 243.789C272.206 243.789 272.235 243.49 282.832 231.057C284.656 228.917 290.214 221.754 295.185 215.14C306.914 199.533 317.39 187.199 318.917 187.199C319.246 187.199 319.846 188.393 320.25 189.852ZM74.829 189.905C74.829 191.845 62.0553 198.885 59.4474 198.383C57.4094 197.99 58.4036 196.948 62.3441 195.347C64.4678 194.484 67.907 192.793 69.9868 191.59C74.0122 189.259 74.829 188.975 74.829 189.905ZM161.836 192.608C161.836 193.127 160.777 194.942 159.481 196.639C156.561 200.465 153.589 208.318 152.961 213.873C152.32 219.546 153.45 220.779 158.788 220.228C163.168 219.776 163.423 220.306 161.112 225.077C156.543 234.516 140.271 243.789 128.278 243.789C125.86 243.789 123.782 243.492 115.326 241.933C113.244 241.549 113.197 238.83 115.242 237.002C116.07 236.261 120.113 231.834 124.227 227.166C154.631 192.663 161.836 186.042 161.836 192.608ZM335.201 196.777C340.923 199.677 340.605 202.41 334.614 201.817C330.754 201.436 329.485 200.335 329.485 197.369C329.485 194.428 330.382 194.335 335.201 196.777ZM244.825 196.96C247.346 199.746 249.913 211.212 248.247 212.242C247.222 212.876 242.062 210.201 241.503 208.746C239.17 202.666 241.739 193.55 244.825 196.96ZM72.7063 200.267C72.7063 200.823 68.6123 202.761 67.4361 202.761C65.828 202.761 66.1007 201.678 67.9317 200.795C69.5588 200.01 72.7063 199.662 72.7063 200.267ZM164.526 204.917C164.814 210.965 164.386 212.284 161.577 214.021C157.292 216.669 156.766 214.773 159.432 206.266C161.778 198.774 164.204 198.132 164.526 204.917Z" fill="#0000FF"/>
</svg>
